<svg id="Слой_2" data-name="Слой 2" xmlns="http://www.w3.org/2000/svg" xmlns:xlink="http://www.w3.org/1999/xlink" viewBox="0 0 13825.42 2501.03"><defs><style>.cls-1{fill:none;}.cls-2{fill:url(#Безымянный_градиент_239);}.cls-3{clip-path:url(#clip-path);}.cls-4{fill:url(#Безымянный_градиент_153);}</style><linearGradient id="Безымянный_градиент_239" x1="7116.29" y1="5626.08" x2="7116.29" y2="1139.34" gradientUnits="userSpaceOnUse"><stop offset="0" stop-color="#fe4"/><stop offset="0.04" stop-color="#fae336"/><stop offset="0.12" stop-color="#f4d323"/><stop offset="0.2" stop-color="#f0ca18"/><stop offset="0.28" stop-color="#efc714"/><stop offset="0.83" stop-color="#da8e3e"/><stop offset="0.89" stop-color="#cc5f37"/><stop offset="1" stop-color="#c43431"/></linearGradient><clipPath id="clip-path" transform="translate(-203.58 -2947.32)"><path class="cls-1" d="M1056,4985s2315.9-725.08,5207-762c3001,62,5942.77,473.72,7479.39,1039.67s504.2-955.87,504.2-955.87S9672,3909,6312,4037.11C3032,4325,2895.75,4475.8,1056,4985Z"/></clipPath><linearGradient id="Безымянный_градиент_153" x1="7394.77" y1="5562.34" x2="7394.77" y2="3126.35" gradientUnits="userSpaceOnUse"><stop offset="0.23" stop-color="#f9ea39"/><stop offset="0.43" stop-color="#f7e738"/><stop offset="0.58" stop-color="#f1dd37"/><stop offset="0.72" stop-color="#e7cc33"/><stop offset="0.85" stop-color="#d8b52f"/><stop offset="0.97" stop-color="#c59729"/><stop offset="1" stop-color="#c19028"/></linearGradient></defs><title>viшшш</title><path d="M6287.34,3673.81c-5.27.74-9.05-2.62-13.23-4.62-106.94-51-219.34-84.82-335.69-105.9-105.44-19.11-211.73-25.69-318.64-18.5q-243.13,16.37-461.6,124.85c-64.13,31.86-124.91,68.53-177.86,117.34-85.61,78.93-145.69,174.72-187.12,282.78-36.36,94.86-56.75,193.25-64.08,294.49a927.78,927.78,0,0,0-.57,131.35c3.31,47.77,17.5,92.25,39.69,134.17,64.05,121,164.28,191.22,299.69,211,86.7,12.68,171.54.92,255.7-19.91,9.38-2.32,12.5-7.92,14.51-16.16,14-57.45,26.07-115.33,38-173.22q37.08-179.91,73.49-360c2.91-14.27,2.93-14.41,17-14.41q393.72,0,787.45,0h11c2.87,5.56,1,10.08.11,14.52q-54.11,264.52-108.25,529-49.81,243.57-99.51,487.17c-4.85,23.77-4.69,23.92-28.56,30.13-121.12,31.53-243.54,56.84-367,77.27-92.22,15.26-184.78,27.93-277.83,36.54-141,13-282.24,20.22-424,14.67-107.78-4.23-214.94-13.67-321.13-32.73-155.31-27.87-304.58-73.64-442.72-151.66-143.43-81-258.83-190.48-339.27-335.23-56.07-100.89-90.38-209.07-106.15-323.13-27.66-200.07-2.81-395.09,60.46-585.62,80.87-243.55,212.22-455.61,400.06-631.61,106-99.29,227.27-174.61,360.34-232.12,155.21-67.07,316-115.46,481.58-148.74a2964.21,2964.21,0,0,1,294.35-43.49c126.27-12.41,252.88-16.31,379.73-14.29a2922.31,2922.31,0,0,1,330,23.45c105.83,13.74,210.73,32.39,312.42,65.95,11,3.64,21.72,8.26,32.79,11.69,8.28,2.57,10.28,7.11,8.63,15.39-5.77,29-10.78,58.13-16.43,87.14-33,169.43-67.92,338.47-102.6,507.55C6291.09,3664.11,6290.89,3669.51,6287.34,3673.81Z" transform="translate(-203.58 -2947.32)"/><path d="M203.58,3026.68c6.61-3.16,12-2.07,17.15-2.07q482.43-.09,964.85-0.05a55.26,55.26,0,0,0,6.33,0c7.74-.9,11.2,2,11.94,10.23,2.22,24.71,5.31,49.34,7.94,74q17.15,160.64,34.22,321.29,15,141,29.79,281.94,15.07,141.75,30.31,283.48,13.41,126,26.65,252,10.09,95.29,20.32,190.57c1.49,13.76,3.06,15,12.9,15.79,4.88,0.41,8.11-1.08,10.2-5.47,1.59-3.34,3.37-6.58,5.08-9.85L2110.91,3043.6a18.33,18.33,0,0,0,1.43-2.82c4.06-12.84,12.22-16.59,26-16.57q448.36,0.71,896.73.36h15.6c0.24,7.2-3.7,11.13-6.27,15.52Q2352.66,4220.85,1661,5401.69c-6.07,10.37-12.35,14.58-24.75,14.57q-522-.67-1044.07-0.52a59.22,59.22,0,0,0-6.33,0c-8.58.93-12.15-3-13.34-11.44-4.07-28.74-8.67-57.41-13.13-86.1q-27.58-177.61-55.2-355.22Q478,4794.76,451.85,4626.55,424,4447.37,396.11,4268.2,368.5,4090.59,340.9,3913q-29.44-189.35-58.9-378.69-26.14-168.22-52.22-336.45Q218,3121.94,206.17,3046C205.21,3039.82,204.5,3033.56,203.58,3026.68Z" transform="translate(-203.58 -2947.32)"/><path d="M11502,4917.69c4.09-20.61,8.26-41.21,12.24-61.84q67.85-351.41,135.63-702.83,32.53-168.71,64.9-337.46c0.3-1.56.68-3.1,1-4.65,3.6-17.69,3.6-17.71,22.3-17.72l507-.26c20.5,0,20.51,0,16.55,20.85q-83.24,438-166.47,875.92-67.19,354-134.17,708c-3,15.92-3,16-18.87,16.07q-445.22,1.59-890.44,3.15c-2.64,0-5.3-.2-7.92,0-6.78.6-9.49-2.86-10-9.17-1-13.16-2.14-26.32-3.2-39.47q-11.76-146.06-23.52-292.12-15.06-184.73-30.34-369.44-11.9-146-23.53-292.12c-3.53-43.68-7.11-87.37-11-131-0.43-4.81,1.86-11.93-4.54-13.87a37,37,0,0,0-21.87.26c-4.12,1.33-3.55,6.11-4.3,9.58q-9,41.8-17.81,83.64-77.29,367.27-154.55,734.54-32,151.86-63.93,303.71c-3,14-3.16,14.13-17.28,14.13q-243.21.05-486.43,0c-2.11,0-4.23.08-6.34,0-9.67-.58-9.93-0.85-8.11-10q21.83-109.49,43.69-219,64.43-323,128.85-646,59.34-297.4,118.74-594.78,13.48-67.55,26.91-135.12c3.12-15.68,3.09-15.75,19.08-15.76l903.14-.61a47.88,47.88,0,0,0,6.33,0c7.81-1.06,9.82,3,10.33,10,2.44,34.23,5.36,68.43,8,102.66q12.48,163.48,24.85,327,10.2,135.06,20.28,270.13,11.94,157.17,24.09,314.32c2.53,33.13,4.93,66.27,7.39,99.41Z" transform="translate(-203.58 -2947.32)"/><path d="M7275.21,3794.43q290.75,0,581.5-.05a125.68,125.68,0,0,1,31.33,3.53c73.1,18.57,143.08,44.58,206.36,86.49,10.55,7,20.69,14.65,30.58,22.56,38.47,30.77,65.56,68.94,81.36,116.26,56.78,170.11,7.7,359.35-125.4,483.2a329.55,329.55,0,0,1-127.36,74.24c-46.91,14.82-94.63,26-143,34.53-3.64.64-7.25,1.65-10.92,1.86-8,.47-10.79,4.05-9.66,12.22,0.78,5.63-.42,11.56-0.92,17.34-1,11.87-1.12,12.06,10.33,14.08,22.94,4,45.42,9.77,67,18.63,71.68,29.46,121.57,78.89,141.15,155.56,5.24,20.52,6.35,41.73,8.23,62.74,9.15,102.16,10.79,204.6,11,307.07,0.11,66-.89,132-1.45,198-0.11,13.44-.24,13.62-14.4,13.63q-305,.22-610,0.32c-12.8,0-13.24-.23-12.2-13.46,5.12-64.76,9.32-129.56,11.1-194.51,2-73.41,2.67-146.78-4.62-220-4.24-42.66-18.45-82.2-36.12-120.77-4.69-10.25-11.9-17.09-23.83-18.22-53.09-5-106.15-10.53-159.58-10.25-22.17.11-44.27,0.52-66.37,3.49-18.46,2.48-28.83,11.05-34.06,29.42-17.08,60-30.92,120.67-44.51,181.45q-36.81,164.59-69.6,330c-0.93,4.65-2.35,9.2-3.15,13.86-4.07,23.7-3.74,18.92-22.5,18.94q-288.37.22-576.75,0.09c-19.21,0-19.58-.09-16-18q24.5-121.84,49.37-243.6,65.81-324.37,131.62-648.73,65.68-323.59,131.4-647.16c3.78-18.62,7.74-37.21,11.18-55.9,1.28-6.94,4.44-10.31,11.61-9.79,3.15,0.23,6.33,0,9.5,0h587.84v0.83Zm-152.1,696.79c2.23,1,3.18,1.79,4.1,1.75,58.06-2.51,116.12-.45,174.18-0.06a530.07,530.07,0,0,0,77.38-4.79c58.61-8.23,107.11-37,151.19-74.53,26.21-22.33,39.72-51.24,43.67-85.22,2-17,.94-33.66-1.15-50.48-7-56.41-61.58-119.37-125.06-126.14-32.61-3.48-65.14-5.84-97.89-6-47.54-.29-95.06.65-142.4,5-18.59,1.71-17.65-2.07-21.84,19.63Q7160.81,4297,7136,4423.6C7131.55,4446.23,7127.34,4468.9,7123.11,4491.22Z" transform="translate(-203.58 -2947.32)"/><path d="M13077.48,3792.08q271.68,0,543.37,0c32.53,0,63.77,5,94.16,17.55,44.65,18.39,87.14,40.25,125.86,69.27,88.1,66,139.62,154.9,164.56,260.89,17.41,74,22.87,149,23.52,224.71q2.43,282.44-92.83,548.18a873.27,873.27,0,0,1-64.9,140.75,493.25,493.25,0,0,1-89.88,114c-80.35,75.46-168.76,138.61-271.09,181.11a779.87,779.87,0,0,1-224.9,56.27c-56.16,5.46-112.28,10.41-168.89,10.2-179-.68-357.91-0.28-536.86-0.27q-183.75,0-367.5.09c-19.77,0-19.8,0-16-19.76q85.14-442.34,170.28-884.68,67.27-349.84,134.36-699.71c0.6-3.11,1.66-6.16,2-9.29,0.65-6.77,4.68-8.78,10.81-8.57,4.75,0.16,9.5,0,14.26,0h549.7v-0.67Zm358.17,629c0.11-30.66-1.36-61.2-4-91.74-5.63-65.53-38.87-111.13-98.23-138.35-24.14-11.07-49.52-18-75.57-22.7-47.5-8.63-95.52-9.19-143.56-9.36-30.64-.1-48.26,11.9-59.13,40.4-4.55,11.94-5.67,24.6-8.06,37q-50.85,265-102.06,529.95-19.91,103.35-39.63,206.73c-3.5,18.5,4.64,32,22.13,38.26a74,74,0,0,0,21.71,4.06c40.69,1.83,81.29,0,121.69-4.46,55.84-6.1,109-21.52,154.86-55.06,73.64-53.83,130.42-120.56,159.24-209.2C13419.5,4640.67,13434.14,4532,13435.65,4421.05Z" transform="translate(-203.58 -2947.32)"/><path d="M8064.76,5415.79c-0.53-6,2.08-8.9,3.82-12q439.67-797.43,879.15-1595c5.85-10.62,12-14.49,24.38-14.5q413.48-.43,827-1.73c19.92,0,19.37-4.53,23.17,19.94q27.57,177.6,55.29,355.18,27.81,178.36,55.66,356.72t55.67,356.72q27.57,176.8,55.12,353.6,13.08,83.68,26.43,167.32c2.28,14.45,2.26,14.61-12.86,14.63q-131.49.19-263,.24-179.81.06-359.62,0c-19.7,0-20.17,0-22.89-20-8.11-59.62-15.85-119.29-23.68-178.94-6.73-51.29-13.34-102.61-20.14-153.89-1.88-14.17-2.11-14.23-16.62-14.32q-240-1.53-480-3.29c-11.34-.1-16.74,3.91-21.63,13.45-50.8,99.12-102.06,198-153,297.06-7.72,15-15.33,30.2-21.22,46-4.12,11-10.57,13.75-21.43,13.65-47-.45-94-0.2-141-0.2q-218.62,0-437.24,0C8072.53,5416.41,8068.93,5416,8064.76,5415.79Zm958.87-751.37c2.9,2.31,6.16,1.53,9.21,1.58q162.28,3,324.57,6c2.64,0,5.28,0,7.92.06,4.48,0,7-1.81,6.33-6.68-0.45-3.13-1-6.26-1.41-9.39-14.16-100.85-28.06-201.73-42.57-302.53-7.14-49.61-14.71-99.16-24-148.43-1.19-6.28-2.53-12.41-6.2-17.78q-15.64-22.86-28,1-120.31,230.94-240.54,461.93C9026.54,4654.61,9022.5,4658.68,9023.63,4664.42Z" transform="translate(-203.58 -2947.32)"/><path d="M3617.66,3796.75c-3.53,19.73-6.91,40-10.77,60.08q-69.3,360.78-138.74,721.54-61,317.22-122.19,634.42-18,93.29-36.16,186.54c-0.7,3.62-1.93,7.14-2.57,10.76-0.92,5.21-4.17,6.87-9,6.71-3.16-.1-6.34,0-9.5,0l-595.71,0h-13.17c-3.86-3.81-1.8-6.83-1.19-9.71q43.13-205.3,86.29-410.6,75.5-361.14,150.72-722.34,48.5-232.51,97-465c3.11-14.9,3-14.75,18.16-14.74q285.18,0.09,570.36.13C3606.32,3794.59,3611.72,3792.94,3617.66,3796.75Z" transform="translate(-203.58 -2947.32)"/><path class="cls-2" d="M6287.34,3673.81c-5.27.74-9.05-2.62-13.23-4.62-106.94-51-219.34-84.82-335.69-105.9-105.44-19.11-211.73-25.69-318.64-18.5q-243.13,16.37-461.6,124.85c-64.13,31.86-124.91,68.53-177.86,117.34-85.61,78.93-145.69,174.72-187.12,282.78-36.36,94.86-56.75,193.25-64.08,294.49a927.78,927.78,0,0,0-.57,131.35c3.31,47.77,17.5,92.25,39.69,134.17,64.05,121,164.28,191.22,299.69,211,86.7,12.68,171.54.92,255.7-19.91,9.38-2.32,12.5-7.92,14.51-16.16,14-57.45,26.07-115.33,38-173.22q37.08-179.91,73.49-360c2.91-14.27,2.93-14.41,17-14.41q393.72,0,787.45,0h11c2.87,5.56,1,10.08.11,14.52q-54.11,264.52-108.25,529-49.81,243.57-99.51,487.17c-4.85,23.77-4.69,23.92-28.56,30.13-121.12,31.53-243.54,56.84-367,77.27-92.22,15.26-184.78,27.93-277.83,36.54-141,13-282.24,20.22-424,14.67-107.78-4.23-214.94-13.67-321.13-32.73-155.31-27.87-304.58-73.64-442.72-151.66-143.43-81-258.83-190.48-339.27-335.23-56.07-100.89-90.38-209.07-106.15-323.13-27.66-200.07-2.81-395.09,60.46-585.62,80.87-243.55,212.22-455.61,400.06-631.61,106-99.29,227.27-174.61,360.34-232.12,155.21-67.07,316-115.46,481.58-148.74a2964.21,2964.21,0,0,1,294.35-43.49c126.27-12.41,252.88-16.31,379.73-14.29a2922.31,2922.31,0,0,1,330,23.45c105.83,13.74,210.73,32.39,312.42,65.95,11,3.64,21.72,8.26,32.79,11.69,8.28,2.57,10.28,7.11,8.63,15.39-5.77,29-10.78,58.13-16.43,87.14-33,169.43-67.92,338.47-102.6,507.55C6291.09,3664.11,6290.89,3669.51,6287.34,3673.81Z" transform="translate(-203.58 -2947.32)"/><path class="cls-2" d="M203.58,3026.68c6.61-3.16,12-2.07,17.15-2.07q482.43-.09,964.85-0.05a55.26,55.26,0,0,0,6.33,0c7.74-.9,11.2,2,11.94,10.23,2.22,24.71,5.31,49.34,7.94,74q17.15,160.64,34.22,321.29,15,141,29.79,281.94,15.07,141.75,30.31,283.48,13.41,126,26.65,252,10.09,95.29,20.32,190.57c1.49,13.76,3.06,15,12.9,15.79,4.88,0.41,8.11-1.08,10.2-5.47,1.59-3.34,3.37-6.58,5.08-9.85L2110.91,3043.6a18.33,18.33,0,0,0,1.43-2.82c4.06-12.84,12.22-16.59,26-16.57q448.36,0.71,896.73.36h15.6c0.24,7.2-3.7,11.13-6.27,15.52Q2352.66,4220.85,1661,5401.69c-6.07,10.37-12.35,14.58-24.75,14.57q-522-.67-1044.07-0.52a59.22,59.22,0,0,0-6.33,0c-8.58.93-12.15-3-13.34-11.44-4.07-28.74-8.67-57.41-13.13-86.1q-27.58-177.61-55.2-355.22Q478,4794.76,451.85,4626.55,424,4447.37,396.11,4268.2,368.5,4090.59,340.9,3913q-29.44-189.35-58.9-378.69-26.14-168.22-52.22-336.45Q218,3121.94,206.17,3046C205.21,3039.82,204.5,3033.56,203.58,3026.68Z" transform="translate(-203.58 -2947.32)"/><path class="cls-2" d="M11502,4917.69c4.09-20.61,8.26-41.21,12.24-61.84q67.85-351.41,135.63-702.83,32.53-168.71,64.9-337.46c0.3-1.56.68-3.1,1-4.65,3.6-17.69,3.6-17.71,22.3-17.72l507-.26c20.5,0,20.51,0,16.55,20.85q-83.24,438-166.47,875.92-67.19,354-134.17,708c-3,15.92-3,16-18.87,16.07q-445.22,1.59-890.44,3.15c-2.64,0-5.3-.2-7.92,0-6.78.6-9.49-2.86-10-9.17-1-13.16-2.14-26.32-3.2-39.47q-11.76-146.06-23.52-292.12-15.06-184.73-30.34-369.44-11.9-146-23.53-292.12c-3.53-43.68-7.11-87.37-11-131-0.43-4.81,1.86-11.93-4.54-13.87a37,37,0,0,0-21.87.26c-4.12,1.33-3.55,6.11-4.3,9.58q-9,41.8-17.81,83.64-77.29,367.27-154.55,734.54-32,151.86-63.93,303.71c-3,14-3.16,14.13-17.28,14.13q-243.21.05-486.43,0c-2.11,0-4.23.08-6.34,0-9.67-.58-9.93-0.85-8.11-10q21.83-109.49,43.69-219,64.43-323,128.85-646,59.34-297.4,118.74-594.78,13.48-67.55,26.91-135.12c3.12-15.68,3.09-15.75,19.08-15.76l903.14-.61a47.88,47.88,0,0,0,6.33,0c7.81-1.06,9.82,3,10.33,10,2.44,34.23,5.36,68.43,8,102.66q12.48,163.48,24.85,327,10.2,135.06,20.28,270.13,11.94,157.17,24.09,314.32c2.53,33.13,4.93,66.27,7.39,99.41Z" transform="translate(-203.58 -2947.32)"/><path class="cls-2" d="M7275.21,3794.43q290.75,0,581.5-.05a125.68,125.68,0,0,1,31.33,3.53c73.1,18.57,143.08,44.58,206.36,86.49,10.55,7,20.69,14.65,30.58,22.56,38.47,30.77,65.56,68.94,81.36,116.26,56.78,170.11,7.7,359.35-125.4,483.2a329.55,329.55,0,0,1-127.36,74.24c-46.91,14.82-94.63,26-143,34.53-3.64.64-7.25,1.65-10.92,1.86-8,.47-10.79,4.05-9.66,12.22,0.78,5.63-.42,11.56-0.92,17.34-1,11.87-1.12,12.06,10.33,14.08,22.94,4,45.42,9.77,67,18.63,71.68,29.46,121.57,78.89,141.15,155.56,5.24,20.52,6.35,41.73,8.23,62.74,9.15,102.16,10.79,204.6,11,307.07,0.11,66-.89,132-1.45,198-0.11,13.44-.24,13.62-14.4,13.63q-305,.22-610,0.32c-12.8,0-13.24-.23-12.2-13.46,5.12-64.76,9.32-129.56,11.1-194.51,2-73.41,2.67-146.78-4.62-220-4.24-42.66-18.45-82.2-36.12-120.77-4.69-10.25-11.9-17.09-23.83-18.22-53.09-5-106.15-10.53-159.58-10.25-22.17.11-44.27,0.52-66.37,3.49-18.46,2.48-28.83,11.05-34.06,29.42-17.08,60-30.92,120.67-44.51,181.45q-36.81,164.59-69.6,330c-0.93,4.65-2.35,9.2-3.15,13.86-4.07,23.7-3.74,18.92-22.5,18.94q-288.37.22-576.75,0.09c-19.21,0-19.58-.09-16-18q24.5-121.84,49.37-243.6,65.81-324.37,131.62-648.73,65.68-323.59,131.4-647.16c3.78-18.62,7.74-37.21,11.18-55.9,1.28-6.94,4.44-10.31,11.61-9.79,3.15,0.23,6.33,0,9.5,0h587.84v0.83Zm-152.1,696.79c2.23,1,3.18,1.79,4.1,1.75,58.06-2.51,116.12-.45,174.18-0.06a530.07,530.07,0,0,0,77.38-4.79c58.61-8.23,107.11-37,151.19-74.53,26.21-22.33,39.72-51.24,43.67-85.22,2-17,.94-33.66-1.15-50.48-7-56.41-61.58-119.37-125.06-126.14-32.61-3.48-65.14-5.84-97.89-6-47.54-.29-95.06.65-142.4,5-18.59,1.71-17.65-2.07-21.84,19.63Q7160.81,4297,7136,4423.6C7131.55,4446.23,7127.34,4468.9,7123.11,4491.22Z" transform="translate(-203.58 -2947.32)"/><path class="cls-2" d="M13077.48,3792.08q271.68,0,543.37,0c32.53,0,63.77,5,94.16,17.55,44.65,18.39,87.14,40.25,125.86,69.27,88.1,66,139.62,154.9,164.56,260.89,17.41,74,22.87,149,23.52,224.71q2.43,282.44-92.83,548.18a873.27,873.27,0,0,1-64.9,140.75,493.25,493.25,0,0,1-89.88,114c-80.35,75.46-168.76,138.61-271.09,181.11a779.87,779.87,0,0,1-224.9,56.27c-56.16,5.46-112.28,10.41-168.89,10.2-179-.68-357.91-0.28-536.86-0.27q-183.75,0-367.5.09c-19.77,0-19.8,0-16-19.76q85.14-442.34,170.28-884.68,67.27-349.84,134.36-699.71c0.6-3.11,1.66-6.16,2-9.29,0.65-6.77,4.68-8.78,10.81-8.57,4.75,0.16,9.5,0,14.26,0h549.7v-0.67Zm358.17,629c0.11-30.66-1.36-61.2-4-91.74-5.63-65.53-38.87-111.13-98.23-138.35-24.14-11.07-49.52-18-75.57-22.7-47.5-8.63-95.52-9.19-143.56-9.36-30.64-.1-48.26,11.9-59.13,40.4-4.55,11.94-5.67,24.6-8.06,37q-50.85,265-102.06,529.95-19.91,103.35-39.63,206.73c-3.5,18.5,4.64,32,22.13,38.26a74,74,0,0,0,21.71,4.06c40.69,1.83,81.29,0,121.69-4.46,55.84-6.1,109-21.52,154.86-55.06,73.64-53.83,130.42-120.56,159.24-209.2C13419.5,4640.67,13434.14,4532,13435.65,4421.05Z" transform="translate(-203.58 -2947.32)"/><path class="cls-2" d="M8064.76,5415.79c-0.53-6,2.08-8.9,3.82-12q439.67-797.43,879.15-1595c5.85-10.62,12-14.49,24.38-14.5q413.48-.43,827-1.73c19.92,0,19.37-4.53,23.17,19.94q27.57,177.6,55.29,355.18,27.81,178.36,55.66,356.72t55.67,356.72q27.57,176.8,55.12,353.6,13.08,83.68,26.43,167.32c2.28,14.45,2.26,14.61-12.86,14.63q-131.49.19-263,.24-179.81.06-359.62,0c-19.7,0-20.17,0-22.89-20-8.11-59.62-15.85-119.29-23.68-178.94-6.73-51.29-13.34-102.61-20.14-153.89-1.88-14.17-2.11-14.23-16.62-14.32q-240-1.53-480-3.29c-11.34-.1-16.74,3.91-21.63,13.45-50.8,99.12-102.06,198-153,297.06-7.72,15-15.33,30.2-21.22,46-4.12,11-10.57,13.75-21.43,13.65-47-.45-94-0.2-141-0.2q-218.62,0-437.24,0C8072.53,5416.41,8068.93,5416,8064.76,5415.79Zm958.87-751.37c2.9,2.31,6.16,1.53,9.21,1.58q162.28,3,324.57,6c2.64,0,5.28,0,7.92.06,4.48,0,7-1.81,6.33-6.68-0.45-3.13-1-6.26-1.41-9.39-14.16-100.85-28.06-201.73-42.57-302.53-7.14-49.61-14.71-99.16-24-148.43-1.19-6.28-2.53-12.41-6.2-17.78q-15.64-22.86-28,1-120.31,230.94-240.54,461.93C9026.54,4654.61,9022.5,4658.68,9023.63,4664.42Z" transform="translate(-203.58 -2947.32)"/><path class="cls-2" d="M3617.66,3796.75c-3.53,19.73-6.91,40-10.77,60.08q-69.3,360.78-138.74,721.54-61,317.22-122.19,634.42-18,93.29-36.16,186.54c-0.7,3.62-1.93,7.14-2.57,10.76-0.92,5.21-4.17,6.87-9,6.71-3.16-.1-6.34,0-9.5,0l-595.71,0h-13.17c-3.86-3.81-1.8-6.83-1.19-9.71q43.13-205.3,86.29-410.6,75.5-361.14,150.72-722.34,48.5-232.51,97-465c3.11-14.9,3-14.75,18.16-14.74q285.18,0.09,570.36.13C3606.32,3794.59,3611.72,3792.94,3617.66,3796.75Z" transform="translate(-203.58 -2947.32)"/><g class="cls-3"><path d="M6287.34,3673.81c-5.27.74-9.05-2.62-13.23-4.62-106.94-51-219.34-84.82-335.69-105.9-105.44-19.11-211.73-25.69-318.64-18.5q-243.13,16.37-461.6,124.85c-64.13,31.86-124.91,68.53-177.86,117.34-85.61,78.93-145.69,174.72-187.12,282.78-36.36,94.86-56.75,193.25-64.08,294.49a927.78,927.78,0,0,0-.57,131.35c3.31,47.77,17.5,92.25,39.69,134.17,64.05,121,164.28,191.22,299.69,211,86.7,12.68,171.54.92,255.7-19.91,9.38-2.32,12.5-7.92,14.51-16.16,14-57.45,26.07-115.33,38-173.22q37.08-179.91,73.49-360c2.91-14.27,2.93-14.41,17-14.41q393.72,0,787.45,0h11c2.87,5.56,1,10.08.11,14.52q-54.11,264.52-108.25,529-49.81,243.57-99.51,487.17c-4.85,23.77-4.69,23.92-28.56,30.13-121.12,31.53-243.54,56.84-367,77.27-92.22,15.26-184.78,27.93-277.83,36.54-141,13-282.24,20.22-424,14.67-107.78-4.23-214.94-13.67-321.13-32.73-155.31-27.87-304.58-73.64-442.72-151.66-143.43-81-258.83-190.48-339.27-335.23-56.07-100.89-90.38-209.07-106.15-323.13-27.66-200.07-2.81-395.09,60.46-585.62,80.87-243.55,212.22-455.61,400.06-631.61,106-99.29,227.27-174.61,360.34-232.12,155.21-67.07,316-115.46,481.58-148.74a2964.21,2964.21,0,0,1,294.35-43.49c126.27-12.41,252.88-16.31,379.73-14.29a2922.31,2922.31,0,0,1,330,23.45c105.83,13.74,210.73,32.39,312.42,65.95,11,3.64,21.72,8.26,32.79,11.69,8.28,2.57,10.28,7.11,8.63,15.39-5.77,29-10.78,58.13-16.43,87.14-33,169.43-67.92,338.47-102.6,507.55C6291.09,3664.11,6290.89,3669.51,6287.34,3673.81Z" transform="translate(-203.58 -2947.32)"/><path d="M203.58,3026.68c6.61-3.16,12-2.07,17.15-2.07q482.43-.09,964.85-0.05a55.26,55.26,0,0,0,6.33,0c7.74-.9,11.2,2,11.94,10.23,2.22,24.71,5.31,49.34,7.94,74q17.15,160.64,34.22,321.29,15,141,29.79,281.94,15.07,141.75,30.31,283.48,13.41,126,26.65,252,10.09,95.29,20.32,190.57c1.49,13.76,3.06,15,12.9,15.79,4.88,0.41,8.11-1.08,10.2-5.47,1.59-3.34,3.37-6.58,5.08-9.85L2110.91,3043.6a18.33,18.33,0,0,0,1.43-2.82c4.06-12.84,12.22-16.59,26-16.57q448.36,0.71,896.73.36h15.6c0.24,7.2-3.7,11.13-6.27,15.52Q2352.66,4220.85,1661,5401.69c-6.07,10.37-12.35,14.58-24.75,14.57q-522-.67-1044.07-0.52a59.22,59.22,0,0,0-6.33,0c-8.58.93-12.15-3-13.34-11.44-4.07-28.74-8.67-57.41-13.13-86.1q-27.58-177.61-55.2-355.22Q478,4794.76,451.85,4626.55,424,4447.37,396.11,4268.2,368.5,4090.59,340.9,3913q-29.44-189.35-58.9-378.69-26.14-168.22-52.22-336.45Q218,3121.94,206.17,3046C205.21,3039.82,204.5,3033.56,203.58,3026.68Z" transform="translate(-203.58 -2947.32)"/><path d="M11502,4917.69c4.09-20.61,8.26-41.21,12.24-61.84q67.85-351.41,135.63-702.83,32.53-168.71,64.9-337.46c0.3-1.56.68-3.1,1-4.65,3.6-17.69,3.6-17.71,22.3-17.72l507-.26c20.5,0,20.51,0,16.55,20.85q-83.24,438-166.47,875.92-67.19,354-134.17,708c-3,15.92-3,16-18.87,16.07q-445.22,1.59-890.44,3.15c-2.64,0-5.3-.2-7.92,0-6.78.6-9.49-2.86-10-9.17-1-13.16-2.14-26.32-3.2-39.47q-11.76-146.06-23.52-292.12-15.06-184.73-30.34-369.44-11.9-146-23.53-292.12c-3.53-43.68-7.11-87.37-11-131-0.43-4.81,1.86-11.93-4.54-13.87a37,37,0,0,0-21.87.26c-4.12,1.33-3.55,6.11-4.3,9.58q-9,41.8-17.81,83.64-77.29,367.27-154.55,734.54-32,151.86-63.93,303.71c-3,14-3.16,14.13-17.28,14.13q-243.21.05-486.43,0c-2.11,0-4.23.08-6.34,0-9.67-.58-9.93-0.85-8.11-10q21.83-109.49,43.69-219,64.43-323,128.85-646,59.34-297.4,118.74-594.78,13.48-67.55,26.91-135.12c3.12-15.68,3.09-15.75,19.08-15.76l903.14-.61a47.88,47.88,0,0,0,6.33,0c7.81-1.06,9.82,3,10.33,10,2.44,34.23,5.36,68.43,8,102.66q12.48,163.48,24.85,327,10.2,135.06,20.28,270.13,11.94,157.17,24.09,314.32c2.53,33.13,4.93,66.27,7.39,99.41Z" transform="translate(-203.58 -2947.32)"/><path d="M7275.21,3794.43q290.75,0,581.5-.05a125.68,125.68,0,0,1,31.33,3.53c73.1,18.57,143.08,44.58,206.36,86.49,10.55,7,20.69,14.65,30.58,22.56,38.47,30.77,65.56,68.94,81.36,116.26,56.78,170.11,7.7,359.35-125.4,483.2a329.55,329.55,0,0,1-127.36,74.24c-46.91,14.82-94.63,26-143,34.53-3.64.64-7.25,1.65-10.92,1.86-8,.47-10.79,4.05-9.66,12.22,0.78,5.63-.42,11.56-0.92,17.34-1,11.87-1.12,12.06,10.33,14.08,22.94,4,45.42,9.77,67,18.63,71.68,29.46,121.57,78.89,141.15,155.56,5.24,20.52,6.35,41.73,8.23,62.74,9.15,102.16,10.79,204.6,11,307.07,0.11,66-.89,132-1.45,198-0.11,13.44-.24,13.62-14.4,13.63q-305,.22-610,0.32c-12.8,0-13.24-.23-12.2-13.46,5.12-64.76,9.32-129.56,11.1-194.51,2-73.41,2.67-146.78-4.62-220-4.24-42.66-18.45-82.2-36.12-120.77-4.69-10.25-11.9-17.09-23.83-18.22-53.09-5-106.15-10.53-159.58-10.25-22.17.11-44.27,0.52-66.37,3.49-18.46,2.48-28.83,11.05-34.06,29.42-17.08,60-30.92,120.67-44.51,181.45q-36.81,164.59-69.6,330c-0.93,4.65-2.35,9.2-3.15,13.86-4.07,23.7-3.74,18.92-22.5,18.94q-288.37.22-576.75,0.09c-19.21,0-19.58-.09-16-18q24.5-121.84,49.37-243.6,65.81-324.37,131.62-648.73,65.68-323.59,131.4-647.16c3.78-18.62,7.74-37.21,11.18-55.9,1.28-6.94,4.44-10.31,11.61-9.79,3.15,0.23,6.33,0,9.5,0h587.84v0.83Zm-152.1,696.79c2.23,1,3.18,1.79,4.1,1.75,58.06-2.51,116.12-.45,174.18-0.06a530.07,530.07,0,0,0,77.38-4.79c58.61-8.23,107.11-37,151.19-74.53,26.21-22.33,39.72-51.24,43.67-85.22,2-17,.94-33.66-1.15-50.48-7-56.41-61.58-119.37-125.06-126.14-32.61-3.48-65.14-5.84-97.89-6-47.54-.29-95.06.65-142.4,5-18.59,1.71-17.65-2.07-21.84,19.63Q7160.81,4297,7136,4423.6C7131.55,4446.23,7127.34,4468.9,7123.11,4491.22Z" transform="translate(-203.58 -2947.32)"/><path d="M13077.48,3792.08q271.68,0,543.37,0c32.53,0,63.77,5,94.16,17.55,44.65,18.39,87.14,40.25,125.86,69.27,88.1,66,139.62,154.9,164.56,260.89,17.41,74,22.87,149,23.52,224.71q2.43,282.44-92.83,548.18a873.27,873.27,0,0,1-64.9,140.75,493.25,493.25,0,0,1-89.88,114c-80.35,75.46-168.76,138.61-271.09,181.11a779.87,779.87,0,0,1-224.9,56.27c-56.16,5.46-112.28,10.41-168.89,10.2-179-.68-357.91-0.28-536.86-0.27q-183.75,0-367.5.09c-19.77,0-19.8,0-16-19.76q85.14-442.34,170.28-884.68,67.27-349.84,134.36-699.71c0.6-3.11,1.66-6.16,2-9.29,0.65-6.77,4.68-8.78,10.81-8.57,4.75,0.16,9.5,0,14.26,0h549.7v-0.67Zm358.17,629c0.11-30.66-1.36-61.2-4-91.74-5.63-65.53-38.87-111.13-98.23-138.35-24.14-11.07-49.52-18-75.57-22.7-47.5-8.63-95.52-9.19-143.56-9.36-30.64-.1-48.26,11.9-59.13,40.4-4.55,11.94-5.67,24.6-8.06,37q-50.85,265-102.06,529.95-19.91,103.35-39.63,206.73c-3.5,18.5,4.64,32,22.13,38.26a74,74,0,0,0,21.71,4.06c40.69,1.83,81.29,0,121.69-4.46,55.84-6.1,109-21.52,154.86-55.06,73.64-53.83,130.42-120.56,159.24-209.2C13419.5,4640.67,13434.14,4532,13435.65,4421.05Z" transform="translate(-203.58 -2947.32)"/><path d="M8064.76,5415.79c-0.53-6,2.08-8.9,3.82-12q439.67-797.43,879.15-1595c5.85-10.62,12-14.49,24.38-14.5q413.48-.43,827-1.73c19.92,0,19.37-4.53,23.17,19.94q27.57,177.6,55.29,355.18,27.81,178.36,55.66,356.72t55.67,356.72q27.57,176.8,55.12,353.6,13.08,83.68,26.43,167.32c2.28,14.45,2.26,14.61-12.86,14.63q-131.49.19-263,.24-179.81.06-359.62,0c-19.7,0-20.17,0-22.89-20-8.11-59.62-15.85-119.29-23.68-178.94-6.73-51.29-13.34-102.61-20.14-153.89-1.88-14.17-2.11-14.23-16.62-14.32q-240-1.53-480-3.29c-11.34-.1-16.74,3.91-21.63,13.45-50.8,99.12-102.06,198-153,297.06-7.72,15-15.33,30.2-21.22,46-4.12,11-10.57,13.75-21.43,13.65-47-.45-94-0.2-141-0.2q-218.62,0-437.24,0C8072.53,5416.41,8068.93,5416,8064.76,5415.79Zm958.87-751.37c2.9,2.31,6.16,1.53,9.21,1.58q162.28,3,324.57,6c2.64,0,5.28,0,7.92.06,4.48,0,7-1.81,6.33-6.68-0.45-3.13-1-6.26-1.41-9.39-14.16-100.85-28.06-201.73-42.57-302.53-7.14-49.61-14.71-99.16-24-148.43-1.19-6.28-2.53-12.41-6.2-17.78q-15.64-22.86-28,1-120.31,230.94-240.54,461.93C9026.54,4654.61,9022.5,4658.68,9023.63,4664.42Z" transform="translate(-203.58 -2947.32)"/><path d="M3617.66,3796.75c-3.53,19.73-6.91,40-10.77,60.08q-69.3,360.78-138.74,721.54-61,317.22-122.19,634.42-18,93.29-36.16,186.54c-0.7,3.62-1.93,7.14-2.57,10.76-0.92,5.21-4.17,6.87-9,6.71-3.16-.1-6.34,0-9.5,0l-595.71,0h-13.17c-3.86-3.81-1.8-6.83-1.19-9.71q43.13-205.3,86.29-410.6,75.5-361.14,150.72-722.34,48.5-232.51,97-465c3.11-14.9,3-14.75,18.16-14.74q285.18,0.09,570.36.13C3606.32,3794.59,3611.72,3792.94,3617.66,3796.75Z" transform="translate(-203.58 -2947.32)"/></g><g class="cls-3"><path class="cls-4" d="M6287.34,3673.81c-5.27.74-9.05-2.62-13.23-4.62-106.94-51-219.34-84.82-335.69-105.9-105.44-19.11-211.73-25.69-318.64-18.5q-243.13,16.37-461.6,124.85c-64.13,31.86-124.91,68.53-177.86,117.34-85.61,78.93-145.69,174.72-187.12,282.78-36.36,94.86-56.75,193.25-64.08,294.49a927.78,927.78,0,0,0-.57,131.35c3.31,47.77,17.5,92.25,39.69,134.17,64.05,121,164.28,191.22,299.69,211,86.7,12.68,171.54.92,255.7-19.91,9.38-2.32,12.5-7.92,14.51-16.16,14-57.45,26.07-115.33,38-173.22q37.08-179.91,73.49-360c2.91-14.27,2.93-14.41,17-14.41q393.72,0,787.45,0h11c2.87,5.56,1,10.08.11,14.52q-54.11,264.52-108.25,529-49.81,243.57-99.51,487.17c-4.85,23.77-4.69,23.92-28.56,30.13-121.12,31.53-243.54,56.84-367,77.27-92.22,15.26-184.78,27.93-277.83,36.54-141,13-282.24,20.22-424,14.67-107.78-4.23-214.94-13.67-321.13-32.73-155.31-27.87-304.58-73.64-442.72-151.66-143.43-81-258.83-190.48-339.27-335.23-56.07-100.89-90.38-209.07-106.15-323.13-27.66-200.07-2.81-395.09,60.46-585.62,80.87-243.55,212.22-455.61,400.06-631.61,106-99.29,227.27-174.61,360.34-232.12,155.21-67.07,316-115.46,481.58-148.74a2964.21,2964.21,0,0,1,294.35-43.49c126.27-12.41,252.88-16.31,379.73-14.29a2922.31,2922.31,0,0,1,330,23.45c105.83,13.74,210.73,32.39,312.42,65.95,11,3.64,21.72,8.26,32.79,11.69,8.28,2.57,10.28,7.11,8.63,15.39-5.77,29-10.78,58.13-16.43,87.14-33,169.43-67.92,338.47-102.6,507.55C6291.09,3664.11,6290.89,3669.51,6287.34,3673.81Z" transform="translate(-203.58 -2947.32)"/><path class="cls-4" d="M203.58,3026.68c6.61-3.16,12-2.07,17.15-2.07q482.43-.09,964.85-0.05a55.26,55.26,0,0,0,6.33,0c7.74-.9,11.2,2,11.94,10.23,2.22,24.71,5.31,49.34,7.94,74q17.15,160.64,34.22,321.29,15,141,29.79,281.94,15.07,141.75,30.31,283.48,13.41,126,26.65,252,10.09,95.29,20.32,190.57c1.49,13.76,3.06,15,12.9,15.79,4.88,0.41,8.11-1.08,10.2-5.47,1.59-3.34,3.37-6.58,5.08-9.85L2110.91,3043.6a18.33,18.33,0,0,0,1.43-2.82c4.06-12.84,12.22-16.59,26-16.57q448.36,0.71,896.73.36h15.6c0.24,7.2-3.7,11.13-6.27,15.52Q2352.66,4220.85,1661,5401.69c-6.07,10.37-12.35,14.58-24.75,14.57q-522-.67-1044.07-0.52a59.22,59.22,0,0,0-6.33,0c-8.58.93-12.15-3-13.34-11.44-4.07-28.74-8.67-57.41-13.13-86.1q-27.58-177.61-55.2-355.22Q478,4794.76,451.85,4626.55,424,4447.37,396.11,4268.2,368.5,4090.59,340.9,3913q-29.44-189.35-58.9-378.69-26.14-168.22-52.22-336.45Q218,3121.94,206.17,3046C205.21,3039.82,204.5,3033.56,203.58,3026.68Z" transform="translate(-203.58 -2947.32)"/><path class="cls-4" d="M11502,4917.69c4.09-20.61,8.26-41.21,12.24-61.84q67.85-351.41,135.63-702.83,32.53-168.71,64.9-337.46c0.3-1.56.68-3.1,1-4.65,3.6-17.69,3.6-17.71,22.3-17.72l507-.26c20.5,0,20.51,0,16.55,20.85q-83.24,438-166.47,875.92-67.19,354-134.17,708c-3,15.92-3,16-18.87,16.07q-445.22,1.59-890.44,3.15c-2.64,0-5.3-.2-7.92,0-6.78.6-9.49-2.86-10-9.17-1-13.16-2.14-26.32-3.2-39.47q-11.76-146.06-23.52-292.12-15.06-184.73-30.34-369.44-11.9-146-23.53-292.12c-3.53-43.68-7.11-87.37-11-131-0.43-4.81,1.86-11.93-4.54-13.87a37,37,0,0,0-21.87.26c-4.12,1.33-3.55,6.11-4.3,9.58q-9,41.8-17.81,83.64-77.29,367.27-154.55,734.54-32,151.86-63.93,303.71c-3,14-3.16,14.13-17.28,14.13q-243.21.05-486.43,0c-2.11,0-4.23.08-6.34,0-9.67-.58-9.93-0.85-8.11-10q21.83-109.49,43.69-219,64.43-323,128.85-646,59.34-297.4,118.74-594.78,13.48-67.55,26.91-135.12c3.12-15.68,3.09-15.75,19.08-15.76l903.14-.61a47.88,47.88,0,0,0,6.33,0c7.81-1.06,9.82,3,10.33,10,2.44,34.23,5.36,68.43,8,102.66q12.48,163.48,24.85,327,10.2,135.06,20.28,270.13,11.94,157.17,24.09,314.32c2.53,33.13,4.93,66.27,7.39,99.41Z" transform="translate(-203.58 -2947.32)"/><path class="cls-4" d="M7275.21,3794.43q290.75,0,581.5-.05a125.68,125.68,0,0,1,31.33,3.53c73.1,18.57,143.08,44.58,206.36,86.49,10.55,7,20.69,14.65,30.58,22.56,38.47,30.77,65.56,68.94,81.36,116.26,56.78,170.11,7.7,359.35-125.4,483.2a329.55,329.55,0,0,1-127.36,74.24c-46.91,14.82-94.63,26-143,34.53-3.64.64-7.25,1.65-10.92,1.86-8,.47-10.79,4.05-9.66,12.22,0.78,5.63-.42,11.56-0.92,17.34-1,11.87-1.12,12.06,10.33,14.08,22.94,4,45.42,9.77,67,18.63,71.68,29.46,121.57,78.89,141.15,155.56,5.24,20.52,6.35,41.73,8.23,62.74,9.15,102.16,10.79,204.6,11,307.07,0.11,66-.89,132-1.45,198-0.11,13.44-.24,13.62-14.4,13.63q-305,.22-610,0.32c-12.8,0-13.24-.23-12.2-13.46,5.12-64.76,9.32-129.56,11.1-194.51,2-73.41,2.67-146.78-4.62-220-4.24-42.66-18.45-82.2-36.12-120.77-4.69-10.25-11.9-17.09-23.83-18.22-53.09-5-106.15-10.53-159.58-10.25-22.17.11-44.27,0.52-66.37,3.49-18.46,2.48-28.83,11.05-34.06,29.42-17.08,60-30.92,120.67-44.51,181.45q-36.81,164.59-69.6,330c-0.93,4.65-2.35,9.2-3.15,13.86-4.07,23.7-3.74,18.92-22.5,18.94q-288.37.22-576.75,0.09c-19.21,0-19.58-.09-16-18q24.5-121.84,49.37-243.6,65.81-324.37,131.62-648.73,65.68-323.59,131.4-647.16c3.78-18.62,7.74-37.21,11.18-55.9,1.28-6.94,4.44-10.31,11.61-9.79,3.15,0.23,6.33,0,9.5,0h587.84v0.83Zm-152.1,696.79c2.23,1,3.18,1.79,4.1,1.75,58.06-2.51,116.12-.45,174.18-0.06a530.07,530.07,0,0,0,77.38-4.79c58.61-8.23,107.11-37,151.19-74.53,26.21-22.33,39.72-51.24,43.67-85.22,2-17,.94-33.66-1.15-50.48-7-56.41-61.58-119.37-125.06-126.14-32.61-3.48-65.14-5.84-97.89-6-47.54-.29-95.06.65-142.4,5-18.59,1.71-17.65-2.07-21.84,19.63Q7160.81,4297,7136,4423.6C7131.55,4446.23,7127.34,4468.9,7123.11,4491.22Z" transform="translate(-203.58 -2947.32)"/><path class="cls-4" d="M13077.48,3792.08q271.68,0,543.37,0c32.53,0,63.77,5,94.16,17.55,44.65,18.39,87.14,40.25,125.86,69.27,88.1,66,139.62,154.9,164.56,260.89,17.41,74,22.87,149,23.52,224.71q2.43,282.44-92.83,548.18a873.27,873.27,0,0,1-64.9,140.75,493.25,493.25,0,0,1-89.88,114c-80.35,75.46-168.76,138.61-271.09,181.11a779.87,779.87,0,0,1-224.9,56.27c-56.16,5.46-112.28,10.41-168.89,10.2-179-.68-357.91-0.28-536.86-0.27q-183.75,0-367.5.09c-19.77,0-19.8,0-16-19.76q85.14-442.34,170.28-884.68,67.27-349.84,134.36-699.71c0.6-3.11,1.66-6.16,2-9.29,0.65-6.77,4.68-8.78,10.81-8.57,4.75,0.16,9.5,0,14.26,0h549.7v-0.67Zm358.17,629c0.11-30.66-1.36-61.2-4-91.74-5.63-65.53-38.87-111.13-98.23-138.35-24.14-11.07-49.52-18-75.57-22.7-47.5-8.63-95.52-9.19-143.56-9.36-30.64-.1-48.26,11.9-59.13,40.4-4.55,11.94-5.67,24.6-8.06,37q-50.85,265-102.06,529.95-19.91,103.35-39.63,206.73c-3.5,18.5,4.64,32,22.13,38.26a74,74,0,0,0,21.71,4.06c40.69,1.83,81.29,0,121.69-4.46,55.84-6.1,109-21.52,154.86-55.06,73.64-53.83,130.42-120.56,159.24-209.2C13419.5,4640.67,13434.14,4532,13435.65,4421.05Z" transform="translate(-203.58 -2947.32)"/><path class="cls-4" d="M8064.76,5415.79c-0.53-6,2.08-8.9,3.82-12q439.67-797.43,879.15-1595c5.85-10.62,12-14.49,24.38-14.5q413.48-.43,827-1.73c19.92,0,19.37-4.53,23.17,19.94q27.57,177.6,55.29,355.18,27.81,178.36,55.66,356.72t55.67,356.72q27.57,176.8,55.12,353.6,13.08,83.68,26.43,167.32c2.28,14.45,2.26,14.61-12.86,14.63q-131.49.19-263,.24-179.81.06-359.62,0c-19.7,0-20.17,0-22.89-20-8.11-59.62-15.85-119.29-23.68-178.94-6.73-51.29-13.34-102.61-20.14-153.89-1.88-14.17-2.11-14.23-16.62-14.32q-240-1.53-480-3.29c-11.34-.1-16.74,3.91-21.63,13.45-50.8,99.12-102.06,198-153,297.06-7.72,15-15.33,30.2-21.22,46-4.12,11-10.57,13.75-21.43,13.65-47-.45-94-0.2-141-0.2q-218.62,0-437.24,0C8072.53,5416.41,8068.93,5416,8064.76,5415.79Zm958.87-751.37c2.9,2.31,6.16,1.53,9.21,1.58q162.28,3,324.57,6c2.64,0,5.28,0,7.92.06,4.48,0,7-1.81,6.33-6.68-0.45-3.13-1-6.26-1.41-9.39-14.16-100.85-28.06-201.73-42.57-302.53-7.14-49.61-14.71-99.16-24-148.43-1.19-6.28-2.53-12.41-6.2-17.78q-15.64-22.86-28,1-120.31,230.94-240.54,461.93C9026.54,4654.61,9022.5,4658.68,9023.63,4664.42Z" transform="translate(-203.58 -2947.32)"/><path class="cls-4" d="M3617.66,3796.75c-3.53,19.73-6.91,40-10.77,60.08q-69.3,360.78-138.74,721.54-61,317.22-122.19,634.42-18,93.29-36.16,186.54c-0.7,3.62-1.93,7.14-2.57,10.76-0.92,5.21-4.17,6.87-9,6.71-3.16-.1-6.34,0-9.5,0l-595.71,0h-13.17c-3.86-3.81-1.8-6.83-1.19-9.71q43.13-205.3,86.29-410.6,75.5-361.14,150.72-722.34,48.5-232.51,97-465c3.11-14.9,3-14.75,18.16-14.74q285.18,0.09,570.36.13C3606.32,3794.59,3611.72,3792.94,3617.66,3796.75Z" transform="translate(-203.58 -2947.32)"/></g></svg>